<svg width="190" height="38" viewBox="0 0 190 38" fill="none" xmlns="http://www.w3.org/2000/svg">
<g clip-path="url(#clip0)">
<path d="M6.07 20.72V18.46C12.7536 17.5423 19.4937 17.0979 26.24 17.13C26.24 17.73 26.24 18.34 26.18 18.95C28.0976 18.099 30.1128 17.4877 32.18 17.13C30.8625 13.722 28.4618 10.8412 25.3471 8.93087C22.2324 7.02052 18.5764 6.1864 14.9414 6.55684C11.3064 6.92727 7.89379 8.48172 5.22852 10.9811C2.56325 13.4805 0.792969 16.7863 0.190001 20.39L6.07 20.72Z" fill="#FDC305"/>
<path d="M27.24 24.23C26.08 25.51 25.85 25.43 25.85 27.68C25.85 28.59 25.85 32.58 25.85 36.86C28.1425 35.346 30.0245 33.2879 31.328 30.8694C32.6315 28.4509 33.3158 25.7474 33.32 23C33.3068 21.9591 33.1997 20.9216 33 19.9C30.9282 21.1295 28.9967 22.5814 27.24 24.23Z" fill="#FDC305"/>
<path d="M6.36 25.72C6.36 25.72 2.57 24.28 1.17 23.89C0.787067 23.7693 0.396097 23.6757 0 23.61C0.108395 26.496 0.965588 29.3041 2.48739 31.7586C4.00919 34.2131 6.14326 36.2296 8.68 37.61L6.36 25.72Z" fill="#FDC305"/>
<path d="M26.29 17.12C26.3307 11.5986 25.862 6.08528 24.89 0.649997C24.89 0.649997 24.75 -0.640003 24 0.409997C23.4109 1.65814 23.0067 2.98539 22.8 4.35C18.5418 4.07577 14.2675 4.18957 10.03 4.69C9.24 2 7.85 0.749997 7.18 0.999997C6.51 1.25 6.46 4.31 6.46 4.31L6.13 18.41C12.8113 17.506 19.548 17.0749 26.29 17.12V17.12Z" fill="#F06351"/>
<path d="M12.41 14C12.41 13.91 13.41 14.68 13.82 14.92C14.23 15.16 14.43 15.34 14.43 15.51C14.43 15.68 14.16 15.85 13.8 15.85C13.44 15.85 12.89 15.73 12.8 15.58H13.74H14.03C13.4207 15.1294 12.8757 14.5978 12.41 14V14Z" fill="black"/>
<path d="M19.89 14.11L18.8 15.44C18.8 15.5 18.63 15.79 18.98 15.74C19.3942 15.6783 19.8023 15.5812 20.2 15.45C20.31 15.45 20.27 15.26 20.09 15.28C19.91 15.3 19.4 15.33 19.09 15.39L19.93 14.13C19.93 14.13 20 14 19.89 14.11Z" fill="black"/>
<path d="M16.75 20.2C17.2135 19.9958 17.5967 19.6443 17.84 19.2C18.12 18.55 17.84 18.29 17.4 18.2C16.7979 18.0902 16.1765 18.2116 15.66 18.54C15.27 18.9 15.32 19.26 15.61 19.54C15.9613 19.8062 16.3442 20.0279 16.75 20.2V20.2Z" fill="black"/>
<path d="M16.35 21.45C16.2379 21.6785 16.0816 21.8825 15.89 22.05C15.6052 22.2791 15.2551 22.4122 14.89 22.43C14.3638 22.472 13.8406 22.3189 13.42 22C13.2222 21.8808 13.0436 21.7324 12.89 21.56C12.7895 21.4491 12.6669 21.3605 12.53 21.3C12.53 21.3 13.28 25.4 15.1 26.05C16.92 26.7 17.24 25.3 17.3 24.92C17.3601 23.7851 17.0742 22.6588 16.48 21.69C16.46 21.38 16.45 21.58 16.35 21.45Z" fill="#F06351"/>
<path d="M14.71 22.59C14.2453 22.5247 13.7989 22.3651 13.3982 22.1209C12.9975 21.8767 12.651 21.5531 12.38 21.17C12.3667 21.157 12.3561 21.1414 12.3489 21.1242C12.3417 21.1071 12.338 21.0886 12.338 21.07C12.338 21.0514 12.3417 21.0329 12.3489 21.0158C12.3561 20.9986 12.3667 20.983 12.38 20.97C12.393 20.9567 12.4086 20.9461 12.4258 20.9389C12.4429 20.9317 12.4614 20.928 12.48 20.928C12.4986 20.928 12.5171 20.9317 12.5342 20.9389C12.5514 20.9461 12.567 20.9567 12.58 20.97C13.0848 21.6642 13.843 22.1313 14.69 22.27V22.27C15.0217 22.245 15.3426 22.1413 15.6261 21.9674C15.9096 21.7934 16.1475 21.5544 16.32 21.27L16.46 21.08L16.56 21.29C16.56 21.29 16.93 22.05 17.56 22.09C18.19 22.13 18.61 21.68 19.17 20.81C19.183 20.7967 19.1986 20.7861 19.2158 20.7789C19.2329 20.7717 19.2514 20.768 19.27 20.768C19.2886 20.768 19.3071 20.7717 19.3242 20.7789C19.3414 20.7861 19.357 20.7967 19.37 20.81C19.4023 20.8306 19.4255 20.8629 19.4348 20.9C19.4441 20.9372 19.4388 20.9766 19.42 21.01C18.78 22.01 18.15 22.45 17.54 22.41C17.308 22.3763 17.0867 22.2903 16.8927 22.1587C16.6987 22.0271 16.5371 21.8531 16.42 21.65C16.2233 21.9245 15.9676 22.1514 15.6717 22.3141C15.3758 22.4767 15.0471 22.571 14.71 22.59V22.59Z" fill="black"/>
<path d="M26.24 18.92C24.4445 20.5437 22.7512 22.277 21.17 24.11C19.5986 25.9361 17.8238 27.5768 15.88 29C15.66 28.47 14.26 27.49 14.26 27.49C14.26 27.49 11.13 25.35 9.08 23.67C7.97414 22.7373 6.9287 21.7353 5.95 20.67L3.95 20.56C6.84018 24.7655 11.0702 27.8676 15.95 29.36C16.81 29.22 19.22 27.5 21.02 26.1C23.1389 24.2819 25.124 22.3134 26.96 20.21C27.4625 19.621 27.8493 18.9425 28.1 18.21C27 18.6 26.24 18.92 26.24 18.92Z" fill="#F06351"/>
</g>
<g clip-path="url(#clip1)">
<path d="M90.2645 29.5385C89.3696 28.2762 88.9253 26.7627 89 25.2308V18.8462C88.8916 17.2977 89.3081 15.7575 90.1855 14.4615C91.0548 13.4615 92.3983 13 94.374 13C96.3498 13 97.6143 13.4615 98.4045 14.3077C99.2626 15.3794 99.6846 16.7214 99.59 18.0769V19.6154H95.7175V17.8462C95.7488 17.3229 95.6681 16.799 95.4804 16.3077C95.3802 16.1094 95.2212 15.9448 95.024 15.8351C94.8269 15.7255 94.6005 15.6757 94.374 15.6923C93.8208 15.6923 93.4257 15.8462 93.2676 16.2308C93.0888 16.7773 93.0086 17.3499 93.0305 17.9231V26.1538C92.9888 26.71 93.0978 27.267 93.3466 27.7692C93.5047 28.1538 93.8999 28.3077 94.4531 28.3077C95.0063 28.3077 95.3224 28.1538 95.4804 27.7692C95.6601 27.2494 95.7405 26.7019 95.7175 26.1538V24.3077H99.59V25.8462C99.6704 27.2238 99.2508 28.5852 98.4045 29.6923C97.6143 30.6154 96.2707 31.0769 94.374 31.0769C92.4773 31 91.0548 30.5385 90.2645 29.5385Z" fill="#111111"/>
<path d="M104.253 13.2308H108.757L112.077 30.7692H108.441L107.809 27.0769H105.201L104.569 30.7692H100.854L104.253 13.2308ZM107.493 24.7692L106.545 17.9231L105.596 24.7692H107.493Z" fill="#111111"/>
<path d="M114.843 16.1539H112.156V13.2308H121.56V16.0769H118.873V30.7692H114.843V16.1539Z" fill="#111111"/>
<path d="M128.752 13.2308H135.707V15.0769H131.202V20.8462H134.837V22.6154H131.202V29.0769H135.707V30.8462H128.673V13.2308H128.752Z" fill="#111111"/>
<path d="M137.761 13.2308H139.5L144.637 24.8462V13.2308H146.692V30.7692H145.111L139.895 18.7692V30.7692H137.761V13.2308Z" fill="#111111"/>
<path d="M149.063 13.2308H156.017V15.0769H151.513V20.8462H155.148V22.6154H151.513V29.0769H156.017V30.8462H149.063V13.2308Z" fill="#111111"/>
<path d="M158.072 13.2308H161.707C163.137 13.1346 164.559 13.5144 165.738 14.3077C166.607 15 167.002 16.2308 167.002 17.8462C167.002 20.0769 166.291 21.4615 164.79 21.9231L167.318 30.6923H164.869L162.498 22.4615H160.522V30.6923H157.993V13.2308H158.072ZM161.549 20.7692C162.364 20.8346 163.176 20.6165 163.841 20.1538C164.315 19.7692 164.552 19 164.552 17.8462C164.574 17.273 164.494 16.7004 164.315 16.1538C164.137 15.7617 163.832 15.4373 163.446 15.2308C162.902 14.9893 162.304 14.8836 161.707 14.9231H160.601V20.6923H161.549V20.7692Z" fill="#111111"/>
<path d="M170.164 29.4615C169.342 28.1166 168.956 26.5616 169.057 25V19.1538C169.038 18.0391 169.17 16.9268 169.452 15.8461C169.717 15.0386 170.244 14.3367 170.954 13.8461C171.836 13.3377 172.854 13.0967 173.878 13.1538C175.538 13.1538 176.723 13.5385 177.434 14.3846C178.252 15.5019 178.644 16.8624 178.541 18.2308V18.8461H176.17V18.3077C176.173 17.6635 176.12 17.0201 176.012 16.3846C175.945 15.983 175.718 15.6235 175.379 15.3846C174.935 15.1008 174.408 14.9658 173.878 15C173.311 14.9647 172.75 15.1284 172.297 15.4615C172.111 15.614 171.959 15.8018 171.851 16.0134C171.742 16.2251 171.679 16.4561 171.665 16.6923C171.561 17.38 171.508 18.0741 171.507 18.7692V25.3077C171.449 26.3038 171.61 27.3006 171.981 28.2308C172.297 28.8461 172.93 29.0769 173.878 29.0769C174.252 29.1223 174.632 29.0589 174.97 28.8947C175.307 28.7304 175.587 28.4727 175.775 28.1538C176.192 27.1811 176.381 26.1299 176.328 25.0769V23.8461H174.036V22.0769H178.62V30.7692H177.039L176.802 28.7692C176.595 29.4395 176.163 30.0231 175.576 30.4273C174.989 30.8315 174.28 31.0331 173.562 31C172.909 31.0374 172.256 30.9164 171.663 30.6479C171.07 30.3793 170.555 29.9717 170.164 29.4615V29.4615Z" fill="#111111"/>
<path d="M183.678 24.6154L179.805 13.3077H182.176L184.942 21.7692L187.629 13.3077H190L186.128 24.6154V30.7692H183.757V24.6154H183.678Z" fill="#111111"/>
</g>
<defs>
<clipPath id="clip0">
<rect width="33.32" height="37.61" fill="white"/>
</clipPath>
<clipPath id="clip1">
<rect width="101" height="18" fill="white" transform="translate(89 13)"/>
</clipPath>
</defs>
</svg>
