<svg width="230" height="58" viewBox="0 0 230 58" fill="none" xmlns="http://www.w3.org/2000/svg">
<rect width="230" height="58" fill="white"/>
<g clip-path="url(#clip0)">
<path d="M18.07 26.72V24.46C24.7536 23.5423 31.4937 23.0979 38.24 23.13C38.24 23.73 38.24 24.34 38.18 24.95C40.0976 24.099 42.1128 23.4877 44.18 23.13C42.8625 19.722 40.4618 16.8412 37.3471 14.9309C34.2324 13.0205 30.5764 12.1864 26.9414 12.5568C23.3064 12.9273 19.8938 14.4817 17.2285 16.9811C14.5632 19.4804 12.793 22.7863 12.19 26.39L18.07 26.72Z" fill="#FDC305"/>
<path d="M39.24 30.23C38.08 31.51 37.85 31.43 37.85 33.68C37.85 34.59 37.85 38.58 37.85 42.86C40.1425 41.346 42.0245 39.2879 43.328 36.8694C44.6315 34.4509 45.3158 31.7474 45.32 29C45.3068 27.9591 45.1997 26.9216 45 25.9C42.9282 27.1295 40.9967 28.5814 39.24 30.23Z" fill="#FDC305"/>
<path d="M18.36 31.72C18.36 31.72 14.57 30.28 13.17 29.89C12.7871 29.7693 12.3961 29.6757 12 29.61C12.1084 32.4959 12.9656 35.3041 14.4874 37.7586C16.0092 40.2131 18.1433 42.2296 20.68 43.61L18.36 31.72Z" fill="#FDC305"/>
<path d="M38.29 23.12C38.3307 17.5986 37.862 12.0853 36.89 6.65C36.89 6.65 36.75 5.36 36 6.41C35.4109 7.65814 35.0067 8.98539 34.8 10.35C30.5418 10.0758 26.2675 10.1896 22.03 10.69C21.24 8 19.85 6.75 19.18 7C18.51 7.25 18.46 10.31 18.46 10.31L18.13 24.41C24.8113 23.506 31.548 23.0749 38.29 23.12Z" fill="#F06351"/>
<path d="M24.41 20C24.41 19.91 25.41 20.68 25.82 20.92C26.23 21.16 26.43 21.34 26.43 21.51C26.43 21.68 26.16 21.85 25.8 21.85C25.44 21.85 24.89 21.73 24.8 21.58H25.74H26.03C25.4207 21.1294 24.8757 20.5978 24.41 20Z" fill="black"/>
<path d="M31.89 20.11L30.8 21.44C30.8 21.5 30.63 21.79 30.98 21.74C31.3942 21.6783 31.8023 21.5812 32.2 21.45C32.31 21.45 32.27 21.26 32.09 21.28C31.91 21.3 31.4 21.33 31.09 21.39L31.93 20.13C31.93 20.13 32 20 31.89 20.11Z" fill="black"/>
<path d="M28.75 26.2C29.2135 25.9958 29.5967 25.6443 29.84 25.2C30.12 24.55 29.84 24.29 29.4 24.2C28.7979 24.0902 28.1765 24.2116 27.66 24.54C27.27 24.9 27.32 25.26 27.61 25.54C27.9613 25.8062 28.3442 26.0279 28.75 26.2Z" fill="black"/>
<path d="M28.35 27.45C28.2379 27.6785 28.0816 27.8825 27.89 28.05C27.6052 28.2791 27.2551 28.4122 26.89 28.43C26.3638 28.472 25.8406 28.3189 25.42 28C25.2222 27.8808 25.0436 27.7324 24.89 27.56C24.7895 27.4491 24.6669 27.3605 24.53 27.3C24.53 27.3 25.28 31.4 27.1 32.05C28.92 32.7 29.24 31.3 29.3 30.92C29.3601 29.7851 29.0742 28.6587 28.48 27.69C28.46 27.38 28.45 27.58 28.35 27.45Z" fill="#F06351"/>
<path d="M26.71 28.59C26.2453 28.5247 25.7989 28.3651 25.3982 28.1209C24.9975 27.8767 24.651 27.5531 24.38 27.17C24.3667 27.157 24.3561 27.1414 24.3489 27.1242C24.3417 27.1071 24.338 27.0886 24.338 27.07C24.338 27.0514 24.3417 27.0329 24.3489 27.0158C24.3561 26.9986 24.3667 26.983 24.38 26.97C24.393 26.9567 24.4086 26.9461 24.4258 26.9389C24.4429 26.9317 24.4614 26.928 24.48 26.928C24.4986 26.928 24.5171 26.9317 24.5342 26.9389C24.5514 26.9461 24.567 26.9567 24.58 26.97C25.0848 27.6642 25.843 28.1313 26.69 28.27C27.0217 28.245 27.3426 28.1413 27.6261 27.9674C27.9096 27.7934 28.1475 27.5544 28.32 27.27L28.46 27.08L28.56 27.29C28.56 27.29 28.93 28.05 29.56 28.09C30.19 28.13 30.61 27.68 31.17 26.81C31.183 26.7967 31.1986 26.7861 31.2158 26.7789C31.2329 26.7717 31.2514 26.768 31.27 26.768C31.2886 26.768 31.3071 26.7717 31.3242 26.7789C31.3414 26.7861 31.357 26.7967 31.37 26.81C31.4023 26.8306 31.4255 26.8629 31.4348 26.9C31.4441 26.9372 31.4388 26.9766 31.42 27.01C30.78 28.01 30.15 28.45 29.54 28.41C29.308 28.3763 29.0867 28.2903 28.8927 28.1587C28.6987 28.0271 28.5371 27.8531 28.42 27.65C28.2233 27.9245 27.9676 28.1514 27.6717 28.3141C27.3758 28.4767 27.0471 28.571 26.71 28.59Z" fill="black"/>
<path d="M38.24 24.92C36.4445 26.5437 34.7512 28.277 33.17 30.11C31.5986 31.9361 29.8238 33.5768 27.88 35C27.66 34.47 26.26 33.49 26.26 33.49C26.26 33.49 23.13 31.35 21.08 29.67C19.9741 28.7373 18.9287 27.7353 17.95 26.67L15.95 26.56C18.8402 30.7655 23.0702 33.8676 27.95 35.36C28.81 35.22 31.22 33.5 33.02 32.1C35.1389 30.2819 37.124 28.3134 38.96 26.21C39.4625 25.621 39.8493 24.9425 40.1 24.21C39 24.6 38.24 24.92 38.24 24.92Z" fill="#F06351"/>
</g>
<g clip-path="url(#clip1)">
<path d="M89.2645 36.5385C88.3696 35.2762 87.9253 33.7627 88 32.2308V25.8462C87.8916 24.2977 88.3081 22.7575 89.1855 21.4615C90.0548 20.4615 91.3983 20 93.374 20C95.3498 20 96.6143 20.4615 97.4045 21.3077C98.2626 22.3794 98.6846 23.7214 98.59 25.0769V26.6154H94.7175V24.8462C94.7488 24.3229 94.6681 23.799 94.4804 23.3077C94.3802 23.1094 94.2212 22.9448 94.024 22.8351C93.8269 22.7255 93.6005 22.6757 93.374 22.6923C92.8208 22.6923 92.4257 22.8462 92.2676 23.2308C92.0888 23.7773 92.0086 24.3499 92.0305 24.9231V33.1538C91.9888 33.71 92.0978 34.267 92.3466 34.7692C92.5047 35.1538 92.8999 35.3077 93.4531 35.3077C94.0063 35.3077 94.3224 35.1538 94.4804 34.7692C94.6601 34.2494 94.7405 33.7019 94.7175 33.1538V31.3077H98.59V32.8462C98.6704 34.2238 98.2508 35.5852 97.4045 36.6923C96.6143 37.6154 95.2707 38.0769 93.374 38.0769C91.4773 38 90.0548 37.5385 89.2645 36.5385Z" fill="#111111"/>
<path d="M103.253 20.2308H107.757L111.077 37.7692H107.441L106.809 34.0769H104.201L103.569 37.7692H99.8545L103.253 20.2308ZM106.493 31.7692L105.545 24.9231L104.596 31.7692H106.493Z" fill="#111111"/>
<path d="M113.843 23.1539H111.156V20.2308H120.56V23.0769H117.873V37.7692H113.843V23.1539Z" fill="#111111"/>
<path d="M127.752 20.2308H134.707V22.0769H130.202V27.8462H133.837V29.6154H130.202V36.0769H134.707V37.8462H127.673V20.2308H127.752Z" fill="#111111"/>
<path d="M136.761 20.2308H138.5L143.637 31.8462V20.2308H145.692V37.7692H144.111L138.895 25.7692V37.7692H136.761V20.2308Z" fill="#111111"/>
<path d="M148.063 20.2308H155.017V22.0769H150.513V27.8462H154.148V29.6154H150.513V36.0769H155.017V37.8462H148.063V20.2308Z" fill="#111111"/>
<path d="M157.072 20.2308H160.707C162.137 20.1346 163.559 20.5143 164.738 21.3077C165.607 22 166.002 23.2308 166.002 24.8461C166.002 27.0769 165.291 28.4615 163.79 28.9231L166.318 37.6923H163.869L161.498 29.4615H159.522V37.6923H156.993V20.2308H157.072ZM160.549 27.7692C161.364 27.8346 162.176 27.6165 162.841 27.1538C163.315 26.7692 163.552 26 163.552 24.8461C163.574 24.273 163.494 23.7004 163.315 23.1538C163.137 22.7616 162.832 22.4373 162.446 22.2308C161.902 21.9893 161.304 21.8836 160.707 21.9231H159.601V27.6923H160.549V27.7692Z" fill="#111111"/>
<path d="M169.164 36.4615C168.342 35.1166 167.956 33.5616 168.057 32V26.1538C168.038 25.0391 168.17 23.9268 168.452 22.8461C168.717 22.0386 169.244 21.3367 169.954 20.8461C170.836 20.3377 171.854 20.0967 172.878 20.1538C174.538 20.1538 175.723 20.5384 176.434 21.3846C177.252 22.5019 177.644 23.8624 177.541 25.2308V25.8461H175.17V25.3077C175.173 24.6634 175.12 24.0201 175.012 23.3846C174.945 22.983 174.718 22.6235 174.379 22.3846C173.935 22.1008 173.408 21.9658 172.878 22C172.311 21.9646 171.75 22.1284 171.297 22.4615C171.111 22.614 170.959 22.8018 170.851 23.0134C170.742 23.2251 170.679 23.4561 170.665 23.6923C170.561 24.38 170.508 25.0741 170.507 25.7692V32.3077C170.449 33.3038 170.61 34.3005 170.981 35.2308C171.297 35.8461 171.93 36.0769 172.878 36.0769C173.252 36.1223 173.632 36.0589 173.97 35.8947C174.307 35.7304 174.587 35.4727 174.775 35.1538C175.192 34.1811 175.381 33.1299 175.328 32.0769V30.8461H173.036V29.0769H177.62V37.7692H176.039L175.802 35.7692C175.595 36.4395 175.163 37.0231 174.576 37.4273C173.989 37.8315 173.28 38.0331 172.562 38C171.909 38.0374 171.256 37.9164 170.663 37.6479C170.07 37.3793 169.555 36.9717 169.164 36.4615Z" fill="#111111"/>
<path d="M182.678 31.6154L178.805 20.3077H181.176L183.942 28.7692L186.629 20.3077H189L185.128 31.6154V37.7692H182.757V31.6154H182.678Z" fill="#111111"/>
</g>
<defs>
<clipPath id="clip0">
<rect width="33.32" height="37.61" fill="white" transform="translate(12 6)"/>
</clipPath>
<clipPath id="clip1">
<rect width="101" height="18" fill="white" transform="translate(88 20)"/>
</clipPath>
</defs>
</svg>
